<?xml version="1.0" standalone="no"?>
<!DOCTYPE svg PUBLIC "-//W3C//DTD SVG 20010904//EN"
 "http://www.w3.org/TR/2001/REC-SVG-20010904/DTD/svg10.dtd">
<svg version="1.0" xmlns="http://www.w3.org/2000/svg"
 width="348.000000pt" height="583.000000pt" viewBox="0 0 348.000000 583.000000"
 preserveAspectRatio="xMidYMid meet">

<g transform="translate(0.000000,583.000000) scale(0.100000,-0.100000)"
fill="#000000" stroke="none">
<path d="M1946 5433 c-4 -4 -12 -9 -17 -9 -5 -1 -10 -2 -11 -3 -3 -3 -31 -7
-99 -15 -26 -3 -67 -16 -93 -30 -25 -13 -63 -30 -84 -36 -55 -18 -92 -34 -92
-41 0 -4 -10 -9 -22 -13 -33 -8 -148 -123 -186 -184 -17 -29 -32 -54 -32 -57
0 -2 -11 -16 -25 -31 -14 -15 -25 -32 -25 -39 0 -23 -65 -67 -125 -85 -17 -5
-15 -9 17 -24 20 -10 42 -23 47 -30 10 -12 -8 -99 -49 -236 -26 -87 -33 -326
-10 -352 34 -38 41 -49 46 -78 8 -40 1 -38 -25 6 -12 20 -25 34 -28 30 -4 -3
-14 1 -24 10 -16 14 -18 13 -24 -17 -4 -17 -4 -70 1 -118 4 -47 10 -75 12 -61
9 64 23 98 42 103 27 7 50 -21 29 -37 -23 -17 -29 -42 -14 -62 12 -17 14 -16
34 16 l21 35 0 -49 c0 -40 -3 -47 -16 -42 -11 4 -9 -2 6 -22 l22 -27 -21 -3
c-22 -4 -28 -17 -12 -27 13 -8 41 -65 41 -83 0 -9 -3 -12 -7 -9 -3 4 -11 -1
-18 -9 -9 -13 -16 -14 -31 -6 -28 15 -43 -1 -93 -93 -44 -81 -52 -121 -39
-185 7 -32 4 -39 -39 -85 -26 -27 -46 -56 -45 -63 4 -16 -37 -51 -60 -52 -9 0
-24 -10 -33 -22 -14 -20 -25 -23 -96 -24 -53 -1 -85 -6 -97 -16 -31 -26 -69
-47 -289 -159 -120 -61 -237 -125 -260 -143 -23 -17 -60 -42 -83 -56 l-40 -24
0 -627 0 -627 32 -7 c43 -8 223 -59 316 -89 39 -14 72 -21 72 -17 0 4 27 40
60 79 121 144 292 407 327 504 12 35 35 67 76 106 66 64 226 252 276 326 18
26 66 107 105 180 63 114 70 131 54 134 -28 5 -33 30 -14 63 16 26 16 31 2 45
-19 18 -14 48 18 114 12 25 30 70 40 101 9 31 27 65 39 76 29 25 133 86 176
103 30 12 32 15 15 22 -15 7 -15 8 5 4 15 -3 41 5 69 21 38 22 49 25 72 16 16
-6 41 -8 56 -5 18 3 42 -3 70 -18 l42 -24 72 33 72 33 38 -28 c40 -31 121 -95
185 -147 22 -17 47 -32 55 -32 8 0 14 -8 12 -16 -1 -9 5 -22 13 -29 8 -7 15
-19 15 -27 0 -8 8 -26 19 -39 l19 -24 7 23 c4 12 7 24 7 27 0 3 8 13 18 23 18
18 18 18 15 0 -2 -10 -4 -18 -5 -18 -9 0 -7 -62 2 -72 8 -9 7 -13 -2 -13 -20
0 -6 -80 25 -144 25 -50 26 -60 15 -82 -13 -24 -51 -32 -77 -16 -19 12 -103
155 -103 175 0 10 -4 16 -10 12 -12 -7 -190 82 -190 95 0 6 -3 9 -7 9 -5 -1
-10 0 -13 1 -9 3 -50 7 -50 4 0 -1 46 -26 102 -54 57 -29 115 -61 130 -71 15
-11 57 -70 94 -132 37 -62 83 -126 101 -143 22 -20 31 -37 27 -47 -12 -31 128
-204 281 -346 66 -62 141 -132 167 -157 26 -24 57 -64 67 -87 33 -71 226 -347
243 -347 4 0 8 -6 9 -12 1 -7 22 -32 48 -55 l47 -42 62 17 62 16 0 528 0 527
-73 73 c-41 40 -97 106 -126 145 -62 86 -93 110 -152 119 -24 4 -57 16 -72 26
-21 15 -37 18 -63 14 -30 -6 -50 2 -154 58 -83 45 -137 83 -173 119 -34 35
-69 60 -102 72 -27 10 -54 22 -58 25 -12 10 20 100 43 125 11 11 26 39 34 62
20 58 58 241 52 252 -3 4 1 17 9 27 13 18 14 16 15 -21 l1 -40 24 27 c13 16
27 23 30 18 19 -32 32 15 39 144 3 41 -2 71 -14 100 -13 29 -17 58 -15 99 2
32 0 68 -4 80 -5 13 -5 30 -1 38 6 11 1 14 -26 14 -30 0 -34 -3 -34 -26 0 -16
9 -33 23 -43 21 -15 21 -16 4 -29 -21 -18 -27 -148 -7 -173 20 -23 -4 -43 -27
-22 -10 8 -25 17 -33 20 -10 3 -15 19 -16 49 -3 69 -3 71 -16 66 -7 -2 -12 -9
-11 -14 2 -8 15 -138 15 -153 1 -21 -4 -29 -17 -24 -11 5 -15 -7 -17 -58 -2
-48 -7 -63 -18 -63 -11 0 -15 11 -14 43 1 61 -12 52 -19 -14 -3 -31 -10 -61
-16 -67 -15 -15 -31 2 -31 33 0 35 -9 60 -22 60 -5 0 -7 -4 -4 -9 8 -13 -14
-72 -41 -107 -12 -17 -23 -36 -23 -42 0 -7 -5 -12 -12 -12 -6 0 -9 -2 -6 -5 9
-9 -92 -106 -102 -100 -6 3 -10 2 -10 -4 0 -15 -58 8 -73 29 -7 10 -24 20 -37
21 -14 2 -28 9 -32 14 -5 6 -8 5 -8 -2 0 -7 -10 -13 -23 -13 -12 0 -32 -7 -45
-15 -20 -14 -21 -14 -16 0 5 11 2 14 -12 8 -12 -5 -15 -3 -9 6 6 10 2 11 -16
6 -21 -7 -22 -6 -10 9 8 9 11 19 7 23 -3 3 -6 2 -6 -4 0 -14 -56 -34 -75 -27
-8 4 -15 1 -15 -6 0 -6 -4 -9 -9 -5 -5 3 -13 1 -16 -5 -5 -8 -11 -8 -19 -1 -7
6 -24 8 -39 5 -15 -2 -27 0 -27 6 0 5 -4 10 -10 10 -5 0 -10 -8 -10 -17 0 -12
-3 -14 -8 -6 -12 19 -127 1 -155 -25 -13 -12 -29 -22 -36 -22 -7 0 -9 -4 -6
-10 3 -5 -1 -10 -9 -10 -19 0 -21 11 -5 27 8 8 8 19 0 40 l-11 28 3 -27 c3
-19 0 -25 -10 -21 -7 3 -22 -5 -32 -18 -20 -24 -20 -24 -34 -4 -9 11 -13 23
-11 27 3 5 -3 8 -13 9 -10 0 -13 3 -7 5 9 4 9 14 1 39 -5 19 -14 32 -18 29 -5
-2 -16 8 -26 23 -10 15 -20 30 -23 33 -3 3 -5 16 -4 30 0 14 -5 34 -12 45 -6
11 -10 31 -9 45 1 14 -4 40 -11 59 -8 18 -14 42 -14 52 0 10 -8 23 -17 28 -12
7 -13 11 -5 11 16 0 13 49 -5 68 -7 7 -10 19 -7 26 3 8 1 17 -5 21 -6 3 -11
11 -11 17 0 6 7 5 17 -3 16 -13 16 -13 0 11 -21 31 -22 41 -1 33 14 -5 15 -3
5 15 -10 19 -9 21 5 15 14 -5 16 -1 12 21 -3 14 -1 29 5 33 6 4 7 1 2 -7 -5
-8 -4 -11 3 -6 6 3 9 26 7 51 -2 25 0 45 4 45 4 0 6 14 3 30 -4 26 -2 29 14
23 17 -6 17 -5 5 10 -11 14 -11 20 -1 32 12 15 4 20 -22 16 -14 -2 -8 17 7 23
8 3 15 0 15 -6 0 -6 3 -8 6 -5 4 4 1 13 -6 22 -7 8 -9 15 -4 15 4 0 -2 9 -14
20 -23 22 -29 40 -12 40 6 0 10 9 10 21 0 11 5 29 10 39 6 10 13 43 16 72 6
56 19 82 37 71 5 -3 7 -1 4 4 -4 6 7 30 23 54 16 24 30 49 30 54 0 6 8 21 18
34 55 75 118 120 215 153 71 25 93 28 162 24 63 -3 83 -8 95 -24 9 -11 31 -23
49 -27 20 -4 36 -16 43 -30 6 -13 20 -26 32 -29 30 -7 60 -39 170 -176 20 -25
45 -55 55 -67 11 -12 27 -48 37 -80 10 -32 21 -60 26 -63 4 -3 9 -17 10 -30 2
-14 5 -27 8 -30 13 -13 40 -83 40 -104 0 -19 -4 -22 -30 -18 -20 3 -30 0 -30
-8 0 -8 -4 -9 -12 -3 -15 11 -106 10 -163 -2 -34 -7 -77 -42 -67 -53 2 -2 -5
-10 -15 -17 -15 -11 -16 -16 -4 -39 11 -19 11 -29 2 -39 -6 -8 -9 -25 -7 -38
3 -13 5 -33 5 -43 1 -17 16 -15 16 2 0 4 7 16 15 27 13 18 27 23 68 27 6 1 12
5 12 8 0 4 14 13 30 20 39 16 31 26 -10 11 -24 -8 -31 -8 -28 1 7 20 51 47 86
52 37 5 102 -10 102 -25 0 -5 10 -14 23 -18 15 -6 0 -8 -43 -5 -69 4 -69 4 -2
-16 23 -8 42 -19 42 -27 0 -8 5 -11 10 -8 6 3 10 1 10 -5 0 -8 -6 -9 -17 -5
-32 14 -144 17 -193 5 -26 -6 -57 -22 -69 -34 l-21 -23 35 1 c19 1 35 4 35 8
0 4 9 12 20 18 17 9 22 7 29 -13 12 -31 34 -48 74 -56 31 -7 31 -7 6 -12 -14
-3 -52 3 -85 13 -77 25 -88 18 -32 -20 52 -36 123 -55 187 -50 38 3 46 -1 64
-24 15 -20 21 -43 21 -78 0 -63 11 -44 21 34 4 32 9 70 13 85 9 41 7 70 -11
151 -20 89 -20 83 -5 74 8 -5 9 -2 5 9 -3 10 -2 17 3 17 6 0 10 7 10 16 0 8 5
12 10 9 6 -3 10 -17 10 -30 0 -13 5 -27 10 -30 6 -3 10 2 10 12 0 15 2 16 10
3 6 -10 10 -11 10 -2 0 6 9 12 20 12 24 0 24 0 5 47 -40 102 -15 214 30 136
l16 -28 -4 28 c-4 27 7 38 16 15 4 -10 6 -10 6 0 1 7 -5 15 -13 18 -7 3 -11
14 -9 28 3 13 -3 54 -13 92 -10 38 -17 77 -16 87 0 9 -3 17 -7 17 -4 0 -8 20
-10 45 -1 25 0 45 3 45 9 0 37 -60 29 -60 -5 0 -3 -4 4 -8 6 -4 19 -21 28 -37
l17 -30 -7 48 c-3 26 -3 47 2 48 4 0 18 2 31 5 16 3 22 -1 22 -15 0 -25 27
-52 44 -45 8 3 17 1 21 -5 3 -6 -1 -11 -11 -11 -14 0 -15 -3 -6 -12 7 -7 12
-25 12 -40 0 -28 17 -64 51 -103 9 -11 16 -35 16 -52 0 -18 7 -41 15 -50 8
-10 18 -31 22 -48 3 -16 8 -37 10 -44 1 -8 8 -17 15 -19 12 -4 8 26 -10 74 -4
12 -5 25 -2 28 3 3 1 11 -5 18 -5 7 -12 33 -15 58 -2 25 -14 63 -25 85 -15 27
-20 50 -16 78 3 30 -2 52 -23 94 -16 31 -34 58 -40 60 -7 3 -15 27 -19 54 -4
27 -13 54 -20 60 -8 6 -14 19 -14 27 0 13 3 12 15 -4 14 -19 14 -18 15 3 0 39
-92 163 -121 163 -8 0 -33 48 -44 88 -8 26 -47 51 -53 33 -7 -20 -22 -12 -22
12 0 23 1 22 -145 85 -112 47 -128 52 -170 52 -22 -1 -78 2 -125 5 -47 3 -89
2 -94 -2z m-636 -917 c0 -3 -4 -8 -10 -11 -5 -3 -10 -1 -10 4 0 6 5 11 10 11
6 0 10 -2 10 -4z m1245 -165 c3 -5 1 -12 -5 -16 -5 -3 -10 1 -10 9 0 18 6 21
15 7z m-289 -169 c-10 -2 -22 0 -28 6 -6 6 0 7 19 4 21 -5 23 -7 9 -10z m80
-24 c-1 -13 -11 -25 -21 -26 -17 -4 -15 5 8 36 14 18 17 15 13 -10z m-56 2 c0
-5 -4 -10 -9 -10 -6 0 -13 5 -16 10 -3 6 1 10 9 10 9 0 16 -4 16 -10z m408
-25 c-3 -3 -9 2 -12 12 -6 14 -5 15 5 6 7 -7 10 -15 7 -18z m39 -159 c-4 -9
-12 -16 -19 -16 -10 0 -10 2 1 9 9 6 10 11 2 15 -6 4 -8 12 -5 18 10 15 28 -8
21 -26z m-107 -7 c0 -6 -4 -7 -10 -4 -5 3 -10 11 -10 16 0 6 5 7 10 4 6 -3 10
-11 10 -16z m93 -34 c-3 -9 -8 -14 -10 -11 -3 3 -2 9 2 15 9 16 15 13 8 -4z
m-3 -41 c0 -8 -5 -12 -10 -9 -6 4 -8 11 -5 16 9 14 15 11 15 -7z m-380 -274
c-6 -12 -14 -19 -17 -17 -2 3 1 15 7 27 6 12 14 19 17 17 2 -3 -1 -15 -7 -27z
m-336 -49 c9 -7 13 -17 10 -22 -2 -5 8 -11 23 -14 15 -4 54 -16 86 -28 l57
-22 -22 -17 c-13 -10 -30 -18 -38 -18 -8 0 -46 -11 -85 -24 -38 -14 -74 -21
-80 -17 -5 4 -28 9 -50 10 -61 3 -155 30 -201 57 l-42 24 -4 -30 c-3 -17 -1
-30 4 -30 5 0 7 -4 4 -9 -4 -5 0 -11 6 -14 9 -3 7 -7 -5 -12 -11 -5 -24 -1
-36 9 -20 18 -36 22 -26 6 9 -15 -1 -12 -37 10 -18 11 -27 20 -20 20 6 0 12 5
12 10 0 6 -7 10 -16 10 -13 0 -15 7 -10 33 4 17 11 34 16 35 6 2 8 7 6 10 -5
9 86 17 192 17 63 0 82 3 82 14 0 11 16 13 79 9 44 -3 87 -10 95 -17z m-748
-126 c-1 -19 -5 -35 -10 -35 -5 0 -6 -3 -3 -7 4 -3 2 -12 -4 -20 -9 -10 -8
-13 5 -13 17 0 22 -25 6 -35 -10 -6 -3 -64 10 -78 9 -10 1 -57 -10 -57 -14 0
-30 54 -34 114 -3 53 1 77 29 154 8 21 12 13 11 -23z m849 -15 c-3 -5 -11 -10
-16 -10 -6 0 -7 5 -4 10 3 6 11 10 16 10 6 0 7 -4 4 -10z m-1052 -137 c4 -3
-2 -17 -14 -29 -12 -13 -19 -30 -16 -38 4 -9 3 -16 -2 -16 -5 0 -11 -13 -14
-29 -7 -35 -37 -54 -71 -45 -29 7 -45 36 -18 33 34 -3 39 1 52 44 20 63 61
103 83 80z m1407 -89 c0 -8 -4 -14 -9 -14 -6 0 -9 9 -8 19 1 22 17 18 17 -5z
m80 -51 c0 -25 -3 -31 -16 -26 -9 3 -11 9 -6 12 5 3 8 21 7 40 -2 22 0 29 6
20 5 -8 9 -28 9 -46z"/>
<path d="M2810 4850 c0 -5 5 -10 11 -10 5 0 7 5 4 10 -3 6 -8 10 -11 10 -2 0
-4 -4 -4 -10z"/>
<path d="M2641 4668 c1 -23 37 -130 38 -114 1 10 38 -29 44 -47 2 -7 8 -9 12
-4 5 4 0 20 -11 35 -25 34 -38 63 -35 81 1 7 -2 10 -9 6 -8 -5 -11 1 -9 16 4
26 -7 49 -22 49 -5 0 -9 -10 -8 -22z"/>
<path d="M2907 4629 c10 -16 29 -40 42 -52 24 -22 24 -22 13 -1 -6 12 -8 25
-4 29 4 5 2 5 -4 2 -6 -3 -17 5 -24 18 -7 13 -19 26 -27 29 -10 4 -10 -2 4
-25z"/>
<path d="M1619 4469 c-6 -3 -10 -10 -9 -15 1 -5 -3 -10 -9 -12 -7 -2 -8 3 -4
14 4 12 2 15 -8 12 -8 -3 -13 -11 -11 -17 1 -6 -4 -11 -10 -11 -7 0 -3 -7 10
-15 16 -12 27 -13 41 -5 15 7 22 7 28 -3 4 -7 25 -21 46 -31 27 -12 37 -22 33
-33 -3 -8 -6 -19 -6 -24 0 -5 -12 -7 -27 -3 -27 6 -27 5 5 -15 17 -11 32 -22
32 -25 0 -2 -24 -3 -52 -1 -29 1 -79 -1 -111 -5 -89 -10 -88 10 2 36 l46 13
-45 -3 c-25 -1 -53 -6 -63 -11 -13 -5 -18 -4 -17 6 5 32 0 40 -16 31 -9 -5
-25 -7 -36 -4 -11 3 -29 -4 -43 -18 -41 -38 -10 -67 118 -109 53 -17 57 -17
42 -2 -16 18 -11 31 12 31 7 0 13 -6 13 -13 0 -22 34 -47 63 -47 18 0 34 10
48 30 17 23 26 27 36 19 16 -14 17 -36 1 -42 -7 -3 12 -5 43 -5 54 -1 57 1 55
24 0 13 -4 24 -7 24 -4 0 -10 7 -13 16 -4 12 -2 15 9 10 10 -4 15 1 15 15 0
11 5 17 10 14 6 -3 10 -2 10 4 0 5 -5 11 -11 13 -7 2 4 19 22 38 19 19 27 30
19 25 -13 -7 -13 -6 -2 7 10 12 8 20 -9 41 -11 15 -23 26 -27 25 -12 -3 -117
14 -127 21 -14 8 -82 9 -96 0z m27 -227 c-10 -2 -22 0 -28 6 -6 6 0 7 19 4 21
-5 23 -7 9 -10z m-6 -16 c0 -3 -4 -8 -10 -11 -5 -3 -10 -1 -10 4 0 6 5 11 10
11 6 0 10 -2 10 -4z"/>
<path d="M2730 4412 c0 -21 5 -28 20 -28 11 0 20 6 20 13 0 7 -4 13 -10 13 -5
0 -10 7 -10 15 0 8 -4 15 -10 15 -5 0 -10 -13 -10 -28z"/>
<path d="M2620 4404 c0 -8 5 -12 10 -9 6 4 8 11 5 16 -9 14 -15 11 -15 -7z"/>
<path d="M2786 4385 c-5 -13 10 -166 19 -195 3 -11 13 -20 21 -20 16 0 19 16
4 25 -8 5 -8 11 0 20 8 9 5 14 -10 18 -28 7 -27 63 1 93 22 24 20 62 -3 48 -7
-5 -9 -2 -6 8 4 8 0 15 -8 15 -7 0 -15 -5 -18 -12z"/>
<path d="M2630 4352 c0 -15 63 -67 68 -54 2 6 10 12 18 12 8 0 14 5 14 10 0 6
-4 10 -9 10 -6 0 -13 -4 -16 -10 -9 -14 -27 -12 -23 2 3 7 -6 18 -20 25 -28
15 -32 16 -32 5z"/>
<path d="M2742 4328 c5 -15 28 -23 28 -10 0 5 -7 13 -16 16 -10 4 -14 1 -12
-6z"/>
<path d="M2860 4270 c-12 -12 -18 -26 -14 -32 5 -7 13 -4 26 11 31 40 22 55
-12 21z"/>
<path d="M2577 4264 c-4 -4 -7 -36 -7 -71 0 -56 2 -63 19 -63 17 0 19 5 15 38
-9 66 -19 104 -27 96z"/>
<path d="M2873 4224 c-7 -3 -9 -12 -6 -20 8 -21 19 -17 19 6 0 11 0 20 -1 19
0 0 -5 -3 -12 -5z"/>
<path d="M1519 4208 c-7 -26 -4 -40 11 -53 25 -23 87 -44 130 -45 35 0 121 38
127 57 4 12 -138 5 -151 -8 -6 -5 -17 -9 -25 -9 -14 0 -14 1 -1 10 8 5 10 10
5 10 -6 0 -16 -5 -22 -11 -8 -8 -14 -6 -22 10 -10 17 -49 48 -52 39z"/>
<path d="M2792 4161 c2 -14 9 -26 16 -29 17 -5 15 10 -3 34 -15 18 -15 18 -13
-5z"/>
<path d="M2852 4143 c2 -29 -12 -74 -21 -69 -4 3 -6 -7 -3 -22 3 -16 7 -21 10
-12 2 8 13 22 25 31 16 13 18 23 13 53 -7 36 -26 51 -24 19z"/>
<path d="M2770 4118 c0 -9 5 -20 10 -23 13 -8 13 5 0 25 -8 13 -10 13 -10 -2z"/>
<path d="M1100 3935 c0 -18 38 -67 44 -57 3 6 -5 23 -19 39 -13 15 -24 24 -25
18z"/>
<path d="M1786 3897 c-10 -7 -17 -19 -15 -26 5 -14 72 -41 102 -41 9 0 17 -7
17 -15 0 -8 6 -15 14 -15 8 0 16 -6 19 -12 2 -8 23 -13 55 -13 51 0 57 -4 52
-34 -2 -13 0 -13 16 0 16 12 17 12 12 -2 -5 -13 -2 -16 13 -12 13 4 18 11 15
20 -5 11 0 13 22 9 34 -7 46 1 59 39 6 17 14 39 19 49 5 13 4 17 -3 13 -6 -4
-13 -2 -15 4 -2 6 -26 15 -53 20 -50 9 -70 3 -109 -36 -9 -9 -16 -12 -16 -6 0
6 -12 11 -28 11 -15 0 -44 11 -64 25 -48 32 -88 40 -112 22z"/>
<path d="M1727 3844 c-24 -25 55 -55 90 -35 15 9 12 10 -19 11 -20 0 -43 7
-51 15 -8 8 -17 12 -20 9z"/>
<path d="M2701 3704 c0 -11 3 -14 6 -6 3 7 2 16 -1 19 -3 4 -6 -2 -5 -13z"/>
<path d="M1751 3206 c-11 -14 -134 -51 -162 -49 -9 1 -32 -15 -50 -35 -19 -21
-23 -27 -8 -14 15 13 59 31 106 42 84 20 153 48 153 62 0 13 -27 9 -39 -6z"/>
<path d="M1835 2970 c-16 -4 -58 -8 -93 -9 -50 -1 -76 -8 -132 -36 -47 -24
-83 -35 -112 -35 -40 0 -45 -3 -67 -43 -13 -23 -18 -37 -10 -31 8 6 25 11 38
12 13 0 31 7 40 15 49 43 140 76 286 103 88 16 144 34 100 33 -11 -1 -33 -5
-50 -9z"/>
<path d="M1371 2947 c-9 -12 -9 -16 1 -19 9 -3 6 -15 -11 -44 l-23 -39 34 30
c18 17 34 31 36 32 2 1 -3 13 -10 28 -12 23 -16 24 -27 12z"/>
<path d="M1841 2770 c-18 -10 -43 -27 -55 -38 -11 -11 -30 -22 -41 -26 -14 -4
-24 -21 -32 -53 -7 -27 -19 -72 -28 -102 -14 -50 -13 -55 3 -67 14 -10 18 -10
20 2 2 8 -2 22 -10 31 -8 10 -8 14 -1 10 7 -4 18 2 26 13 14 21 15 20 15 -5 0
-14 -4 -25 -9 -25 -14 0 -10 -22 6 -34 14 -10 14 -16 -2 -61 -9 -28 -30 -72
-46 -100 -35 -60 -199 -221 -245 -241 -18 -8 -69 -49 -112 -91 -70 -66 -80
-73 -80 -52 -1 37 -116 -204 -137 -286 -9 -37 -40 -116 -56 -145 -18 -32 -29
-65 -43 -130 -3 -13 -28 -78 -55 -145 -56 -132 -106 -264 -119 -310 -15 -57
-41 -119 -51 -125 -5 -4 -11 -17 -12 -28 -1 -12 -5 -22 -9 -22 -4 0 -8 -6 -8
-14 0 -8 -9 -31 -19 -53 -21 -42 -55 -115 -56 -123 -4 -15 -18 -50 -35 -85
-11 -22 -22 -53 -26 -70 -4 -16 -16 -48 -28 -70 -11 -22 -21 -44 -22 -50 -2
-21 -23 -62 -46 -91 -13 -16 -39 -55 -58 -86 -19 -32 -37 -58 -41 -58 -4 0 -7
-9 -6 -20 1 -20 8 -20 1382 -20 l1380 0 -5 107 c-5 102 -17 147 -44 166 -6 4
-47 7 -91 6 -44 -1 -85 -1 -91 0 -8 1 -11 40 -10 125 l1 124 67 74 c37 41 70
87 73 101 4 15 11 27 17 27 10 0 61 -104 114 -235 61 -152 125 -299 133 -309
4 -6 22 -36 38 -66 56 -102 68 -120 81 -120 8 0 12 15 10 45 -1 34 -5 45 -15
41 -13 -6 -36 32 -38 64 0 8 -6 14 -13 12 -7 -1 -12 6 -12 16 0 10 -6 24 -12
30 -7 7 -13 16 -13 20 -1 4 -7 18 -15 32 -14 25 -20 44 -22 67 -1 7 -3 11 -6
8 -5 -5 -44 65 -45 82 0 7 -4 10 -9 7 -4 -3 -8 1 -8 8 0 7 -10 33 -23 58 -12
25 -28 62 -36 83 -8 20 -18 37 -22 37 -4 0 -10 16 -13 35 -4 19 -11 35 -16 35
-6 0 -10 6 -10 13 0 7 -9 31 -19 53 -11 21 -17 42 -14 47 2 4 -4 19 -15 35
-10 15 -29 50 -42 77 -13 28 -33 64 -44 80 -12 17 -19 30 -17 30 3 0 -7 20
-21 45 -15 25 -30 57 -33 72 -4 16 -11 28 -16 28 -5 0 -9 9 -9 19 0 11 -6 26
-13 33 -8 7 -19 30 -26 50 -7 20 -19 42 -27 48 -7 7 -14 23 -14 36 0 13 -4 24
-9 24 -10 0 -58 115 -63 151 -2 13 -9 34 -16 47 -7 12 -9 22 -5 22 4 0 2 5 -5
12 -7 7 -12 25 -12 41 0 15 -4 26 -9 22 -6 -3 -19 15 -30 40 -11 25 -23 45
-26 45 -3 0 -3 -6 1 -12 15 -25 -32 18 -141 128 -130 132 -146 144 -326 238
-81 43 -127 93 -179 196 -40 80 -49 106 -30 95 6 -3 7 1 4 9 -3 9 -9 16 -13
16 -6 0 -7 34 -3 66 2 14 61 11 90 -5 12 -6 22 -10 22 -8 0 17 -34 95 -48 110
-16 19 -16 19 6 13 26 -9 31 14 7 34 -10 9 -15 9 -15 1 0 -6 -7 -11 -15 -11
-11 0 -14 7 -9 25 4 15 1 32 -6 40 -10 13 -9 15 10 15 13 0 24 -8 27 -20 3
-11 9 -20 14 -20 5 0 9 -6 9 -12 0 -7 12 -24 27 -38 15 -14 24 -18 21 -10 -3
8 -14 41 -24 73 -16 51 -20 57 -45 57 -15 0 -31 5 -35 12 -4 7 -3 8 4 4 7 -4
12 -3 12 3 0 10 -12 14 -76 25 -18 3 -42 7 -55 9 -13 3 -39 -3 -58 -13z m-71
-370 c0 -5 -7 -7 -15 -4 -8 4 -15 8 -15 10 0 2 7 4 15 4 8 0 15 -4 15 -10z"/>
<path d="M2320 2606 c0 -3 19 -15 41 -27 44 -22 83 -20 93 6 4 12 -4 15 -42
15 -26 0 -57 3 -69 6 -13 4 -23 4 -23 0z"/>
<path d="M2141 2505 c1 -19 18 -51 18 -35 0 8 -4 22 -9 30 -5 8 -9 11 -9 5z"/>
<path d="M3369 1585 c5 -11 33 -45 61 -75 52 -54 50 -44 -2 15 -14 16 -36 41
-48 55 -16 19 -19 20 -11 5z"/>
</g>
</svg>
